<?xml version="1.0" encoding="UTF-8"?>
<svg width="23px" height="24px" viewBox="0 0 23 24" version="1.1" xmlns="http://www.w3.org/2000/svg" xmlns:xlink="http://www.w3.org/1999/xlink">
    <!-- Generator: sketchtool 54.1 (76490) - https://sketchapp.com -->
    <title>6BED92F8-6237-4EA9-A663-B5B76E416DB3</title>
    <desc>Created with sketchtool.</desc>
    <g id="EN-COURS" stroke="none" stroke-width="1" fill="none" fill-rule="evenodd">
        <g id="GLISSHOP-email-transac-confirm-command" transform="translate(-579.000000, -1965.000000)" fill="#4A4A4A">
            <g id="Group-13" transform="translate(0.000000, 1640.000000)">
                <g id="Group-12" transform="translate(0.000000, 220.000000)">
                    <g id="Group-10">
                        <g id="Group-9" transform="translate(336.000000, 51.000000)">
                            <g id="Group-7" transform="translate(0.000000, 41.000000)">
                                <g id="Group">
                                    <g id="Pint" transform="translate(229.664516, 0.000000)">
                                        <path d="M25.0179211,13.7468444 C18.800655,13.7468444 13.7598566,18.7818699 13.7598566,24.9941092 C13.7598566,29.7592003 16.7272948,33.8288356 20.9152948,35.4671872 C20.8167867,34.577716 20.7276604,33.2130479 20.954698,32.2410968 C21.1592195,31.3638101 22.2747061,26.6512062 22.2747061,26.6512062 C22.2747061,26.6512062 21.9379023,25.9773076 21.9379023,24.9809874 C21.9379023,23.4176176 22.8451147,22.2497766 23.9746738,22.2497766 C24.9344238,22.2497766 25.398819,22.9705388 25.398819,23.8337664 C25.398819,24.7982193 24.7843163,26.240681 24.466276,27.5781682 C24.2007733,28.6972711 25.028241,29.6111114 26.1334077,29.6111114 C28.1345287,29.6111114 29.6721927,27.5031865 29.6721927,24.4608014 C29.6721927,21.7680187 27.7358056,19.8850391 24.9700744,19.8850391 C21.767155,19.8850391 19.8870582,22.2853929 19.8870582,24.7654148 C19.8870582,25.7317423 20.2595125,26.7693025 20.7248459,27.3316657 C20.8167867,27.4432011 20.8299211,27.5416146 20.8027142,27.6550246 L20.4903029,28.9297146 C20.4405797,29.1359144 20.3270609,29.1799662 20.1131577,29.0796781 C18.7068378,28.4263995 17.8277706,26.3728364 17.8277706,24.7232375 C17.8277706,21.1756628 20.4077437,17.9167678 25.2665367,17.9167678 C29.172147,17.9167678 32.2071335,20.697654 32.2071335,24.4130005 C32.2071335,28.2895577 29.761319,31.4087992 26.3651362,31.4087992 C25.224319,31.4087992 24.1519884,30.8173805 23.7851631,30.1172383 L23.0834104,32.7903382 C22.8291658,33.7688502 22.143362,34.9938648 21.6836577,35.7399334 C22.7381631,36.0651668 23.8574023,36.2413739 25.0179211,36.2413739 C31.2351873,36.2413739 36.2759857,31.2054111 36.2759857,24.9941092 C36.2759857,18.7818699 31.2351873,13.7468444 25.0179211,13.7468444" id="Fill-1"></path>
                                    </g>
                                </g>
                            </g>
                        </g>
                    </g>
                </g>
            </g>
        </g>
    </g>
</svg>