<?xml version="1.0" encoding="UTF-8"?>
<svg width="91px" height="50px" viewBox="0 0 91 50" version="1.1" xmlns="http://www.w3.org/2000/svg" xmlns:xlink="http://www.w3.org/1999/xlink">
    <!-- Generator: sketchtool 53 (72520) - https://sketchapp.com -->
    <title>EBC752F3-E1A5-4A53-AAA5-1E97C3F0F93C</title>
    <desc>Created with sketchtool.</desc>
    <defs>
        <polygon id="path-1" points="0.150429094 0.00132978723 5.00215424 0.00132978723 5.00215424 4.79664894 0.150429094 4.79664894"></polygon>
        <polygon id="path-3" points="0 49.9986702 90.993326 49.9986702 90.993326 0.265957447 0 0.265957447"></polygon>
    </defs>
    <g id="Desktop" stroke="none" stroke-width="1" fill="none" fill-rule="evenodd">
        <g id="PointVert_Homepage" transform="translate(-95.000000, -45.000000)">
            <g id="Header" transform="translate(95.000000, 45.000000)">
                <g id="logo-PV-black">
                    <g>
                        <g id="Group-3" transform="translate(33.351608, 0.264628)">
                            <mask id="mask-2" fill="white">
                                <use xlink:href="#path-1"></use>
                            </mask>
                            <g id="Clip-2"></g>
                            <path d="M2.57709211,4.79664894 C3.9167595,4.79664894 5.00215424,3.72244681 5.00215424,2.39984043 C5.00215424,1.07537234 3.9167595,0.00117021277 2.57709211,0.00117021277 C1.23769152,0.00117021277 0.150429094,1.07537234 0.150429094,2.39984043 C0.150429094,3.72244681 1.23769152,4.79664894 2.57709211,4.79664894" id="Fill-1" fill="#404D49" mask="url(#mask-2)"></path>
                        </g>
                        <path d="M26.8693096,19.6421809 C26.8693096,19.6421809 26.7455084,21.4592021 25.7276173,22.2496277 C23.8620618,23.3131915 22.6750113,22.522234 22.394591,22.2948404 C22.3777818,22.2802128 22.3609726,22.2669149 22.3436298,22.2514894 C22.336159,22.2445745 22.333224,22.2419149 22.33189,22.2405851 C21.8212102,21.7714362 21.3220033,20.9384574 21.0687979,19.4629255 C21.0687979,19.4629255 20.5597189,14.822766 20.8814952,12.3634574 C20.8814952,12.3634574 21.042917,10.3448404 22.032526,9.06478723 C23.6200625,7.42515957 25.0619192,8.18765957 25.6817255,8.71718085 C26.3159397,9.28420213 26.9101319,10.3137234 27.0990355,12.1823404 C27.0990355,12.1823404 27.3757204,17.0506915 26.8693096,19.6421809 M31.6578001,15.5943085 C31.6839477,10.2501596 29.259686,7.98367021 27.1185128,7.02196809 C26.9368132,6.91904255 26.7081546,6.81531915 26.422398,6.71159574 C23.7980267,5.76079787 21.6883374,6.61930851 21.6883374,6.61930851 L21.6883374,6.62303191 C16.4067767,8.20547872 16.3683556,15.4594681 16.3683556,15.4594681 C16.3683556,22.0812766 20.00208,23.8682447 22.1115026,24.3746277 L22.1115026,24.3748936 C22.1155048,24.3756915 22.1189733,24.3762234 22.1229755,24.3770213 C22.3929901,24.441383 22.6424602,24.4839362 22.8644485,24.5115957 C24.7660238,24.7783511 25.9762869,24.3272872 25.9762869,24.3272872 L25.9765537,24.3270213 C31.8808556,22.9451064 31.6578001,15.5943085 31.6578001,15.5943085" id="Fill-4" fill="#404D49"></path>
                        <path d="M31.0515479,33.7592287 C27.5237482,29.1068351 22.1477357,32.063484 22.1477357,32.063484 C17.2874726,34.907367 17.9707803,41.6555053 17.9707803,41.6555053 C18.8734083,48.6552394 24.7998556,49.4517819 24.7998556,49.4517819 C28.1993183,49.9648138 30.1153015,48.6967287 30.4605574,48.4414096 L30.4605574,46.4249202 C28.4773374,47.5488564 26.8954039,47.2967287 26.8954039,47.2967287 C23.3342526,46.8775798 22.6698885,44.1815691 22.6698885,44.1815691 C22.6658863,44.1629521 22.6642855,44.1477926 22.6610837,44.1294415 C22.5591612,43.7900798 22.4484338,43.3182713 22.3622533,42.6975266 C22.3614529,42.6903457 22.3601188,42.6850266 22.3593183,42.6775798 C22.3585179,42.6735904 22.3582511,42.6696011 22.3577175,42.6656117 C22.3422423,42.5523138 22.3275676,42.4336968 22.3139602,42.3100266 C22.3134265,42.3052394 22.3128929,42.3001862 22.3123593,42.2953989 C22.3032876,42.2118883 22.2947496,42.126516 22.2864784,42.038484 C22.1504039,40.6211968 22.1770852,39.16375 22.2739382,38.0180053 L22.2632657,38.0180053 C22.2811422,37.7680053 22.3104916,37.5004521 22.3582511,37.2174734 C22.3585179,37.2153457 22.3587847,37.2129521 22.3593183,37.2108245 L22.3593183,37.2108245 C22.506599,36.3438032 22.8297094,35.3275798 23.537564,34.2020479 C23.537564,34.2020479 25.1371071,31.9589628 27.1752906,33.4932713 C27.1752906,33.4932713 28.4978819,34.2727926 28.3807511,37.9435372 L24.1893878,37.9435372 L23.4441795,40.08875 L32.2591429,40.08875 C32.8650749,35.9493883 31.0515479,33.7592287 31.0515479,33.7592287" id="Fill-6" fill="#404D49"></path>
                        <path d="M52.5013279,47.2655319 C51.0463973,47.8450532 50.3313388,47.1881383 49.9932869,46.577766 L49.9927533,46.5769681 C49.7582248,46.1445213 49.7168688,45.6455851 49.7109989,45.177234 L49.7109989,34.0801596 L52.0194638,34.0801596 L52.5322781,31.9032979 L49.7109989,31.9032979 L49.7109989,28.1990426 L45.1359587,28.1990426 C45.1343578,28.1995745 45.1258198,28.2025 45.1258198,28.2025 L45.1258198,44.6695213 C45.1292884,45.4043617 45.1791824,46.5490426 45.7064046,47.446383 C46.9564229,49.5673936 49.2918359,49.5668617 49.2918359,49.5668617 C51.3209477,49.8389362 52.8407138,48.3907979 52.8407138,48.3907979 L52.5013279,47.2655319 Z" id="Fill-8" fill="#404D49"></path>
                        <path d="M65.6092836,22.2930585 C64.1546199,22.8725798 63.4395614,22.2153989 63.1012427,21.6055585 L63.1007091,21.6044947 C62.8664474,21.1723138 62.8248246,20.6731117 62.8192215,20.2047606 L62.8192215,9.10768617 L65.1276864,9.10768617 L65.6405007,6.93082447 L62.8192215,6.93082447 L62.8192215,3.22656915 L58.2441813,3.22656915 L58.2340424,3.2300266 L58.2340424,19.6970479 C58.2372442,20.4318883 58.2871382,21.5763032 58.8146272,22.4736436 C60.0646455,24.5951862 62.4000585,24.5943883 62.4000585,24.5943883 C64.4289035,24.8664628 65.9486696,23.4185904 65.9486696,23.4185904 L65.6092836,22.2930585 Z" id="Fill-10" fill="#404D49"></path>
                        <mask id="mask-4" fill="white">
                            <use xlink:href="#path-3"></use>
                        </mask>
                        <g id="Clip-13"></g>
                        <polygon id="Fill-12" fill="#404D49" mask="url(#mask-4)" points="33.8849671 24.1215426 38.3866338 24.1215426 38.3866338 6.64255319 33.8849671 6.64255319"></polygon>
                        <path d="M51.4228702,24.0038564 L55.7692518,24.0038564 L55.7692518,13.0163564 C55.7140216,7.11130319 51.8929945,6.52779255 51.8929945,6.52779255 C50.8390837,6.25917553 49.8822928,6.31928191 49.0477021,6.53337766 C49.0351619,6.53763298 49.025023,6.54321809 49.0124828,6.5474734 C47.4020004,6.93603723 46.3504909,7.82114362 45.6767884,8.70172872 L45.6783893,6.64268617 L41.2989229,6.64268617 L41.2989229,24.1216755 L45.6799901,24.1216755 L45.6767884,11.3397606 C45.9974974,10.781516 46.3955822,10.4035904 46.7237621,10.1607713 C46.7237621,10.1634309 46.7240289,10.16875 46.7242957,10.1714096 C46.7603154,10.1389628 46.797936,10.1086436 46.8363571,10.0793883 C47.0810245,9.91210106 47.2691276,9.82646277 47.3278264,9.80172872 C47.3278264,9.80172872 47.3318286,9.80013298 47.3336963,9.79906915 C47.3414338,9.79587766 47.3481042,9.79348404 47.3481042,9.79348404 L47.3481042,9.79295213 C47.855849,9.58603723 48.3419821,9.56582447 48.3419821,9.56582447 C51.5392007,9.56582447 51.4228702,12.5464096 51.4228702,12.5464096 L51.4228702,24.0038564 Z" id="Fill-14" fill="#404D49" mask="url(#mask-4)"></path>
                        <path d="M38.4477873,34.2456915 L38.4477873,31.6401064 L33.9461206,31.6401064 L33.9461206,49.1190957 L38.4461864,49.1190957 L38.4477873,37.2858511 C38.9304518,36.1964894 39.9531455,35.6448936 40.3627032,35.498617 C40.5033136,35.4520745 42.0740409,34.9456915 43.2610914,35.1342553 L43.2610914,31.3494149 C40.4256711,31.4930319 39.0825351,32.8717553 38.4477873,34.2456915" id="Fill-15" fill="#404D49" mask="url(#mask-4)"></path>
                        <path d="M14.6824185,4.99204787 C13.0585954,2.97981383 9.57642069,3.15986702 9.57642069,3.15986702 L0.360170687,3.15986702 L0.360170687,24.1215691 L4.9477511,24.1215691 L4.9477511,4.94763298 L4.95655592,4.94763298 L7.68178253,4.94763298 C10.5091985,5.21917553 10.4633067,9.01970745 10.4633067,9.01970745 C10.4334236,10.6239628 9.88032054,11.6143883 9.14471747,12.2239628 C8.24262317,12.9478989 7.16256469,12.9678457 6.72872697,12.9678457 L6.12119408,14.8774202 L9.71276206,14.8774202 C14.4727036,14.8774202 15.5154083,11.0356649 15.5154083,11.0356649 C16.5802584,7.04949468 14.6824185,4.99204787 14.6824185,4.99204787" id="Fill-16" fill="#404D49" mask="url(#mask-4)"></path>
                        <path d="M16.7298871,28.0211436 C16.7298871,28.0211436 12.5753439,40.5280585 11.7020654,42.9384309 C8.9226758,36.4480053 5.72785855,28.0081117 5.72785855,28.0081117 L-8.00438596e-05,28.0081117 L9.08703253,49.1839096 L12.5542657,49.1839096 L19.3622628,28.0211436 L16.7298871,28.0211436 Z" id="Fill-17" fill="#404D49" mask="url(#mask-4)"></path>
                        <path d="M65.7848999,46.8380053 C61.4121038,42.7007713 60.1989057,36.5454521 61.9708099,31.1441223 C60.5532332,29.8199202 58.9622281,28.8021011 57.2615629,28.1685904 C57.1481674,28.1265691 57.0200972,28.1893351 56.9843443,28.3042287 C56.3501301,30.3241755 56.0809159,32.4946543 56.2524766,34.733484 C56.7532844,41.2507713 60.8309854,45.9138032 66.4223158,47.9454521 C66.6440373,48.0263032 66.815598,47.7411968 66.6341652,47.5909309 C66.3460073,47.3515691 66.0623852,47.1005053 65.7848999,46.8380053" id="Fill-18" fill="#AECA3A" mask="url(#mask-4)"></path>
                        <path d="M90.8556773,22.3999202 C90.8484733,22.2914096 90.7572233,22.2041755 90.6480969,22.20125 C80.7077167,21.944867 74.6937548,23.4544415 71.2409295,24.9241223 C70.4925194,25.2153457 69.7659879,25.5794415 69.0712072,26.01375 C67.6789777,26.8443351 67.1477533,27.4794415 67.1477533,27.4794415 L67.149621,27.4797074 C67.0231517,27.5964628 66.8966824,27.713484 66.7736817,27.8358245 C63.6727825,30.9270479 62.4643871,35.1882181 63.1447599,39.1935372 C63.1861159,39.4368883 63.5388425,39.4209309 63.5628556,39.1751862 C63.7899134,36.8382181 64.8795771,34.5690691 66.8350486,32.882633 C70.3986012,29.8086968 75.7828849,29.8182713 79.3360318,32.9036436 C83.5572781,36.5685372 83.7224353,42.9589628 79.8317701,46.8371543 C78.3477569,48.3164096 76.4976765,49.2057713 74.5726217,49.5078989 C74.3303556,49.5461968 74.3450303,49.8985904 74.5883637,49.9246543 C78.2999974,50.3203989 82.1498403,49.1297074 85.0322197,46.3528457 L85.031686,46.3610904 C85.031686,46.3610904 85.2387328,46.1836968 85.5754507,45.7993883 C86.7179433,44.5613564 87.573879,43.1560372 88.1461926,41.6664096 C89.8447233,37.9669415 91.4853556,31.8321011 90.8556773,22.3999202" id="Fill-19" fill="#AECA3A" mask="url(#mask-4)"></path>
                        <path d="M77.2635895,45.9025 C74.4214989,48.7352128 69.8136407,48.7352128 66.9718169,45.9025 C64.1294594,43.0695213 64.1294594,38.4764362 66.9718169,35.6434574 C69.8136407,32.8104787 74.4214989,32.8104787 77.2635895,35.6434574 C80.1054134,38.4764362 80.1054134,43.0695213 77.2635895,45.9025" id="Fill-20" fill="#404D49" mask="url(#mask-4)"></path>
                    </g>
                </g>
            </g>
        </g>
    </g>
</svg>