<?xml version="1.0" encoding="UTF-8"?>
<svg width="52px" height="52px" viewBox="0 0 52 52" version="1.1" xmlns="http://www.w3.org/2000/svg" xmlns:xlink="http://www.w3.org/1999/xlink">
    <!-- Generator: sketchtool 53 (72520) - https://sketchapp.com -->
    <title>4BDA905A-643D-4B22-9561-D18CD2C65E7F</title>
    <desc>Created with sketchtool.</desc>
    <defs>
        <polygon id="path-1" points="0 34.712087 28.6840217 34.712087 28.6840217 -0.000304347826 0 -0.000304347826"></polygon>
    </defs>
    <g id="Desktop" stroke="none" stroke-width="1" fill="none" fill-rule="evenodd">
        <g id="PointVert_Homepage" transform="translate(-1232.000000, -701.000000)">
            <g id="Services" transform="translate(0.000000, 654.000000)">
                <g id="SAV">
                    <g transform="translate(94.000000, 47.000000)">
                        <g transform="translate(1072.000000, 0.000000)">
                            <g id="Picto-sav" transform="translate(66.000000, 0.000000)">
                                <g id="Group-9" transform="translate(15.000000, 5.000000)">
                                    <path d="M7.39397826,33.950837 C7.39397826,33.950837 6.90626087,25.0615978 14.8086522,25.0615978 L19.1600652,25.0615978 C19.1600652,25.0615978 10.7311522,24.7465978 10.7311522,33.950837 L7.39397826,33.950837 Z" id="Fill-1" fill="#77B94D"></path>
                                    <mask id="mask-2" fill="white">
                                        <use xlink:href="#path-1"></use>
                                    </mask>
                                    <g id="Clip-4"></g>
                                    <polygon id="Fill-3" fill="#77B94D" mask="url(#mask-2)" points="1.27521739 9.3485 4.01358696 9.3485 4.01358696 0.605347826 1.27521739 0.605347826"></polygon>
                                    <path d="M18.2430652,21.4035652 C15.9307826,21.4035652 13.2890435,19.5226957 13.2890435,17.2119348 C13.2890435,14.900413 15.9307826,13.0187826 18.2430652,13.0187826 L18.0193696,13.3748696 C16.5440435,15.7198696 16.5440435,18.7032391 18.0193696,21.0482391 L18.2430652,21.4035652 Z" id="Fill-5" fill="#77B94D" mask="url(#mask-2)"></path>
                                    <path d="M7.38948913,33.1899674 L27.1439457,33.1899674 C27.0222065,30.7217065 26.2917717,28.8309457 24.9693804,27.563337 C23.2931848,25.9571413 21.1604674,25.8285543 20.6529674,25.8209457 C20.6385109,25.8217065 20.6240543,25.8224674 20.6095978,25.8224674 L14.0364457,25.8224674 C12.0870978,25.8224674 10.5364457,26.4144239 9.4278587,27.5823587 C7.77829348,29.3201848 7.44883696,31.9360543 7.38948913,33.1899674 M27.9230761,34.7117065 L6.62177174,34.7117065 C6.21775,34.7117065 5.88372826,34.3959457 5.86242391,33.9926848 C5.85177174,33.8055109 5.64101087,29.3688804 8.31775,26.54225 C9.72459783,25.05475 11.6495978,24.3007283 14.0364457,24.3007283 L20.4962283,24.3007283 C20.7876413,24.2900761 23.723837,24.2626848 26.0224239,26.4646413 C27.789163,28.1575761 28.6839457,30.6760543 28.6839457,33.950837 C28.6839457,34.1532283 28.6040543,34.3464891 28.4610109,34.4895326 C28.3187283,34.6318152 28.1254674,34.7117065 27.9230761,34.7117065" id="Fill-6" fill="#3F4444" mask="url(#mask-2)"></path>
                                    <path d="M17.4881304,13.3360652 C15.3508478,13.3360652 13.6122609,15.0746522 13.6122609,17.2111739 C13.6122609,19.3484565 15.3508478,21.0870435 17.4881304,21.0870435 C19.625413,21.0870435 21.3632391,19.3484565 21.3632391,17.2111739 C21.3632391,15.0746522 19.625413,13.3360652 17.4881304,13.3360652 M17.4881304,22.6087826 C14.5123696,22.6087826 12.0905217,20.1869348 12.0905217,17.2111739 C12.0905217,14.235413 14.5123696,11.8143261 17.4881304,11.8143261 C20.4638913,11.8143261 22.8849783,14.235413 22.8849783,17.2111739 C22.8849783,20.1869348 20.4638913,22.6087826 17.4881304,22.6087826" id="Fill-7" fill="#3F4444" mask="url(#mask-2)"></path>
                                    <path d="M1.52173913,9.01303261 L9.55956522,9.01303261 C9.7201087,9.01303261 9.87684783,9.06401087 10.0069565,9.1583587 L11.7097826,10.3947717 L11.7097826,1.52911957 L1.52173913,1.62575 L1.52173913,9.01303261 Z M12.4706522,12.6492283 C12.3131522,12.6492283 12.1556522,12.6005326 12.0232609,12.5039022 L9.31228261,10.5347717 L0.760869565,10.5347717 C0.340108696,10.5347717 0,10.1939022 0,9.77390217 L0,0.871728261 C0,0.45401087 0.336304348,0.114663043 0.75326087,0.110858696 L12.4630435,-0.00022826087 L12.4706522,-0.00022826087 C12.6707609,-0.00022826087 12.8632609,0.0789021739 13.0063043,0.220423913 C13.1501087,0.363467391 13.2315217,0.55748913 13.2315217,0.760641304 L13.2315217,11.8883587 C13.2315217,12.1744457 13.0709783,12.4369457 12.816087,12.5662935 C12.7065217,12.621837 12.588587,12.6492283 12.4706522,12.6492283 L12.4706522,12.6492283 Z" id="Fill-8" fill="#3F4444" mask="url(#mask-2)"></path>
                                </g>
                                <g id="deco-picto" fill="#6FCC49" fill-rule="nonzero">
                                    <circle id="Oval" cx="1" cy="8" r="1"></circle>
                                    <circle id="Oval-Copy-3" cx="51" cy="16" r="1"></circle>
                                    <circle id="Oval" cx="8" cy="2" r="2"></circle>
                                </g>
                                <path d="M52,50 C52,51.1045 41.7024301,52 29,52 C16.2975699,52 6,51.1045 6,50 C6,48.8955 16.2975699,48 29,48 C41.7024301,48 52,48.8955 52,50" id="ombre" fill="#EFEFEF"></path>
                            </g>
                        </g>
                    </g>
                </g>
            </g>
        </g>
    </g>
</svg>